<?xml version="1.0" encoding="UTF-8" standalone="no"?>
<!-- Generator: Adobe Illustrator 18.0.0, SVG Export Plug-In . SVG Version: 6.00 Build 0)  -->

<svg
   xmlns:dc="http://purl.org/dc/elements/1.1/"
   xmlns:cc="http://creativecommons.org/ns#"
   xmlns:rdf="http://www.w3.org/1999/02/22-rdf-syntax-ns#"
   xmlns:svg="http://www.w3.org/2000/svg"
   xmlns="http://www.w3.org/2000/svg"
   xmlns:sodipodi="http://sodipodi.sourceforge.net/DTD/sodipodi-0.dtd"
   xmlns:inkscape="http://www.inkscape.org/namespaces/inkscape"
   version="1.1"
   id="Capa_1"
   x="0px"
   y="0px"
   viewBox="0 0 59 59"
   style="enable-background:new 0 0 59 59;"
   xml:space="preserve"
   sodipodi:docname="object_recurrence.svg"
   inkscape:version="0.92.5 (2060ec1f9f, 2020-04-08)"><metadata
   id="metadata47"><rdf:RDF><cc:Work
       rdf:about=""><dc:format>image/svg+xml</dc:format><dc:type
         rdf:resource="http://purl.org/dc/dcmitype/StillImage" /><dc:title></dc:title></cc:Work></rdf:RDF></metadata><defs
   id="defs45">
	
	
	
	

	
	
</defs><sodipodi:namedview
   pagecolor="#505050"
   bordercolor="#ffffff"
   borderopacity="1"
   objecttolerance="10"
   gridtolerance="10"
   guidetolerance="10"
   inkscape:pageopacity="0"
   inkscape:pageshadow="2"
   inkscape:window-width="1920"
   inkscape:window-height="1043"
   id="namedview43"
   showgrid="false"
   inkscape:zoom="4"
   inkscape:cx="-86.749663"
   inkscape:cy="18.945922"
   inkscape:window-x="0"
   inkscape:window-y="293"
   inkscape:window-maximized="1"
   inkscape:current-layer="Capa_1" />
<path
   inkscape:connector-curvature="0"
   id="path6"
   d="m 52,5.5 c 0,-0.552 -0.448,-1 -1,-1 h -5 v -3 c 0,-0.553 -0.448,-1 -1,-1 h -7 c -0.552,0 -1,0.447 -1,1 v 3 H 15 v -3 c 0,-0.553 -0.448,-1 -1,-1 H 7 c -0.552,0 -1,0.447 -1,1 v 3 H 1 c -0.552,0 -1,0.448 -1,1 v 9 h 52 z m -39,0 v 3 H 8 v -3 -3 h 5 z m 31,0 v 3 h -5 v -3 -3 h 5 z"
   style="fill:#00384e;fill-opacity:1" /><path
   inkscape:connector-curvature="0"
   id="path8"
   d="m 30,45.5 c 0,-6.882 4.376,-12.746 10.485,-15 H 37 v -8 h 8 v 7.051 c 0.332,-0.021 0.662,-0.051 1,-0.051 2.122,0 4.145,0.424 6,1.178 V 17.5 c 0,-0.553 -0.448,-1 -1,-1 H 1 c -0.552,0 -1,0.447 -1,1 v 39 c 0,0.553 0.448,1 1,1 H 35.453 C 32.118,54.566 30,50.28 30,45.5 Z m -15,5 H 7 v -8 h 8 z m 0,-10 H 7 v -8 h 8 z m 0,-10 H 7 v -8 h 8 z m 10,20 h -7 -1 v -8 h 8 z m 0,-10 h -8 v -8 h 8 z m 0,-10 h -8 v -8 h 1 7 z m 2,-8 h 7 1 v 8 h -8 z"
   style="fill:#00384e;fill-opacity:1" />
<g
   id="g12">
</g>
<g
   id="g14">
</g>
<g
   id="g16">
</g>
<g
   id="g18">
</g>
<g
   id="g20">
</g>
<g
   id="g22">
</g>
<g
   id="g24">
</g>
<g
   id="g26">
</g>
<g
   id="g28">
</g>
<g
   id="g30">
</g>
<g
   id="g32">
</g>
<g
   id="g34">
</g>
<g
   id="g36">
</g>
<g
   id="g38">
</g>
<g
   id="g40">
</g>
<path
   id="path858"
   d="m 46,32.5 c -3.764,0 -7.317,1.581 -9.75,4.338 -0.365,0.415 -0.326,1.047 0.088,1.412 0.415,0.365 1.045,0.326 1.412,-0.088 2.053,-2.327 5.061,-3.662 8.25,-3.662 6.065,0 11,4.935 11,11 0,6.065 -4.935,11 -11,11 -4.992,0 -9.407,-3.367 -10.741,-8 H 39 v -2 h -7 v 7 h 2 v -2.664 c 2.093,4.531 6.781,7.664 12,7.664 7.168,0 13,-5.832 13,-13 0,-7.168 -5.832,-13 -13,-13 z"
   inkscape:connector-curvature="0"
   style="fill:#cb4f24;fill-opacity:1" /><g
   id="g864"
   transform="translate(57.25,-1.25)">
</g><g
   id="g866"
   transform="translate(57.25,-1.25)">
</g><g
   id="g868"
   transform="translate(57.25,-1.25)">
</g><g
   id="g870"
   transform="translate(57.25,-1.25)">
</g><g
   id="g872"
   transform="translate(57.25,-1.25)">
</g><g
   id="g874"
   transform="translate(57.25,-1.25)">
</g><g
   id="g876"
   transform="translate(57.25,-1.25)">
</g><g
   id="g878"
   transform="translate(57.25,-1.25)">
</g><g
   id="g880"
   transform="translate(57.25,-1.25)">
</g><g
   id="g882"
   transform="translate(57.25,-1.25)">
</g><g
   id="g884"
   transform="translate(57.25,-1.25)">
</g><g
   id="g886"
   transform="translate(57.25,-1.25)">
</g><g
   id="g888"
   transform="translate(57.25,-1.25)">
</g><g
   id="g890"
   transform="translate(57.25,-1.25)">
</g><g
   id="g892"
   transform="translate(57.25,-1.25)">
</g><path
   id="path941"
   d="m 50.737573,47.795374 c 0,-3.561181 -6.565346,-3.328627 -6.565346,-5.478704 0,-1.040689 0.995664,-1.548965 2.15054,-1.548965 1.942125,0 2.287938,1.247713 3.167557,1.247713 0.622928,0 0.922787,-0.392231 0.922787,-0.831809 0,-1.021657 -1.548964,-1.79498 -3.034336,-2.062811 v -0.985916 a 1.1135655,1.1135655 0 1 0 -2.227131,0 v 1.02073 c -1.61952,0.368558 -3.012522,1.49187 -3.012522,3.323057 0,3.420534 6.564419,3.282209 6.564419,5.684798 0,0.832273 -0.900971,1.664546 -2.380774,1.664546 -2.219239,0 -2.958676,-1.502083 -3.860112,-1.502083 -0.439113,0 -0.831808,0.369487 -0.831808,0.926502 0,0.884724 1.483051,1.949551 3.522189,2.24709 l -0.0014,0.0069 v 1.112637 a 1.1144935,1.1144935 0 0 0 2.228059,0 v -1.112637 c 0,-0.013 -0.0064,-0.02321 -0.0074,-0.03481 1.834899,-0.342564 3.365296,-1.538753 3.365296,-3.676297 z"
   inkscape:connector-curvature="0"
   style="fill:#cb4f24;fill-opacity:1;stroke-width:0.46417892" /></svg>